<svg width="171" height="91" viewBox="0 0 171 91" fill="none" xmlns="http://www.w3.org/2000/svg">
<path d="M0 90.25V80.3677C0 75.5732 2.46406 71.6713 7.39219 68.6619C12.3203 65.6512 18.7851 64.1458 26.7864 64.1458C28.2304 64.1458 29.6192 64.1769 30.9528 64.2391C32.2863 64.3012 33.6062 64.4348 34.9125 64.6399C33.9625 66.7966 33.25 68.9826 32.775 71.1977C32.3 73.4116 32.0625 75.7224 32.0625 78.1302V90.25H0ZM42.75 90.25V78.1302C42.75 74.1524 43.7891 70.5165 45.8672 67.2224C47.9453 63.9283 50.8844 61.0382 54.6844 58.5521C58.4844 56.066 63.0266 54.2014 68.3109 52.9583C73.5953 51.7153 79.325 51.0938 85.5 51.0938C91.7937 51.0938 97.5828 51.7153 102.867 52.9583C108.152 54.2014 112.694 56.066 116.494 58.5521C120.294 61.0382 123.203 63.9283 125.222 67.2224C127.241 70.5165 128.25 74.1524 128.25 78.1302V90.25H42.75ZM138.938 90.25V78.1302C138.938 75.6615 138.73 73.3351 138.314 71.1511C137.898 68.967 137.216 66.8016 136.266 64.6549C137.572 64.4398 138.888 64.3012 140.215 64.2391C141.541 64.1769 142.897 64.1458 144.281 64.1458C152.297 64.1458 158.754 65.6232 163.652 68.5779C168.551 71.5327 171 75.4626 171 80.3677V90.25H138.938ZM53.4375 79.0625H117.562V77.9437C117.562 73.3444 114.564 69.5842 108.567 66.663C102.57 63.7418 94.8812 62.2812 85.5 62.2812C76.1187 62.2812 68.4297 63.7418 62.4328 66.663C56.4359 69.5842 53.4375 73.4066 53.4375 78.1302V79.0625ZM26.6422 58.5521C23.2495 58.5521 20.3359 57.2742 17.9016 54.7185C15.4672 52.1615 14.25 49.0887 14.25 45.5C14.25 41.8951 15.4707 38.8186 17.9122 36.2703C20.3549 33.722 23.2904 32.4479 26.7188 32.4479C30.1625 32.4479 33.1016 33.722 35.5359 36.2703C37.9703 38.8186 39.1875 41.9219 39.1875 45.5802C39.1875 49.1316 37.9703 52.1814 35.5359 54.7297C33.1016 57.278 30.137 58.5521 26.6422 58.5521ZM144.205 58.5521C140.812 58.5521 137.898 57.2742 135.464 54.7185C133.03 52.1615 131.812 49.0887 131.812 45.5C131.812 41.8951 133.033 38.8186 135.475 36.2703C137.917 33.722 140.853 32.4479 144.281 32.4479C147.725 32.4479 150.664 33.722 153.098 36.2703C155.533 38.8186 156.75 41.9219 156.75 45.5802C156.75 49.1316 155.533 52.1814 153.098 54.7297C150.664 57.278 147.699 58.5521 144.205 58.5521ZM85.5 45.5C79.5625 45.5 74.5156 43.3247 70.3594 38.974C66.2031 34.6233 64.125 29.3403 64.125 23.125C64.125 16.7854 66.2031 11.4714 70.3594 7.18281C74.5156 2.89427 79.5625 0.75 85.5 0.75C91.5562 0.75 96.6328 2.89427 100.73 7.18281C104.827 11.4714 106.875 16.7854 106.875 23.125C106.875 29.3403 104.827 34.6233 100.73 38.974C96.6328 43.3247 91.5562 45.5 85.5 45.5ZM85.5623 34.3125C88.6083 34.3125 91.1406 33.2342 93.1594 31.0775C95.1781 28.9208 96.1875 26.2482 96.1875 23.0597C96.1875 19.8713 95.1692 17.2205 93.1327 15.1073C91.0961 12.9941 88.5727 11.9375 85.5623 11.9375C82.552 11.9375 80.0078 13.0034 77.9297 15.1353C75.8516 17.2671 74.8125 19.9086 74.8125 23.0597C74.8125 26.2109 75.8427 28.8741 77.903 31.0495C79.9633 33.2248 82.5164 34.3125 85.5623 34.3125Z" fill="#5F6368"/>
</svg>
