<svg width="129" height="135" viewBox="0 0 129 135" fill="none" xmlns="http://www.w3.org/2000/svg">
<path d="M28.875 104.792H43.125V67.5H28.875V104.792ZM85.875 104.792H100.125V30.2083H85.875V104.792ZM57.375 104.792H71.625V82.4167H57.375V104.792ZM57.375 67.5H71.625V52.5833H57.375V67.5ZM14.625 134.625C10.7062 134.625 7.35156 133.164 4.56094 130.243C1.77031 127.322 0.375 123.81 0.375 119.708V15.2917C0.375 11.1896 1.77031 7.67795 4.56094 4.75677C7.35156 1.83559 10.7062 0.375 14.625 0.375H114.375C118.294 0.375 121.648 1.83559 124.439 4.75677C127.23 7.67795 128.625 11.1896 128.625 15.2917V119.708C128.625 123.81 127.23 127.322 124.439 130.243C121.648 133.164 118.294 134.625 114.375 134.625H14.625ZM14.625 119.708H114.375V15.2917H14.625V119.708Z" fill="#5F6368"/>
</svg>
