<svg width="127" height="126" viewBox="0 0 127 126" fill="none" xmlns="http://www.w3.org/2000/svg">
<path d="M94.7813 125.574V103.199H73.4063V92.0115H94.7813V69.6365H105.469V92.0115H126.844V103.199H105.469V125.574H94.7813ZM0.375 105.25V94.0625H11.0625V105.25H0.375ZM21.75 105.25V94.0625H59.3344V99.4698C59.3344 100.961 59.5125 102.888 59.8688 105.25H21.75ZM0.375 74.2979V63.1104H11.0625V74.2979H0.375ZM21.75 74.2979V63.1104H75.7219C73.6734 64.6381 71.8257 66.3561 70.1786 68.2641C68.5304 70.1735 67.0531 72.1847 65.7469 74.2979H21.75ZM0.375 43.1594V31.9719H11.0625V43.1594H0.375ZM21.75 43.1594V31.9719H114.375V43.1594H21.75ZM0.375 12.0208V0.833344H11.0625V12.0208H0.375ZM21.75 12.0208V0.833344H114.375V12.0208H21.75Z" fill="#5F6368"/>
</svg>
